<?xml version="1.0" standalone="no"?>
<!DOCTYPE svg PUBLIC "-//W3C//DTD SVG 20010904//EN"
 "http://www.w3.org/TR/2001/REC-SVG-20010904/DTD/svg10.dtd">
<svg version="1.0" xmlns="http://www.w3.org/2000/svg"
 width="512.000000pt" height="512.000000pt" viewBox="0 0 512.000000 512.000000"
 preserveAspectRatio="xMidYMid meet">
<metadata>
Created by potrace 1.14, written by Peter Selinger 2001-2017
</metadata>
<g transform="translate(0.000000,512.000000) scale(0.100000,-0.100000)"
fill="#000000" stroke="none">
<path d="M1250 3996 c-57 -12 -111 -43 -143 -82 -42 -53 -232 -86 -564 -99
-129 -5 -180 -18 -243 -63 -46 -33 -60 -48 -96 -102 -71 -106 -90 -197 -119
-550 -3 -41 -8 -95 -10 -120 -3 -25 -7 -83 -11 -130 -3 -47 -7 -101 -9 -120
-2 -19 -6 -84 -10 -145 -4 -60 -8 -126 -10 -145 -2 -19 -6 -84 -10 -145 -4
-60 -8 -126 -10 -145 -3 -19 -5 -104 -5 -187 0 -144 1 -156 25 -202 14 -28 39
-66 56 -85 17 -20 28 -40 24 -46 -4 -6 1 -7 11 -3 13 5 16 3 11 -10 -4 -11 2
-22 18 -33 14 -9 25 -24 26 -33 0 -13 2 -14 6 -1 3 8 11 19 17 23 7 6 4 7 -6
3 -10 -3 -18 -1 -18 4 0 6 -7 10 -16 10 -9 0 -12 5 -8 12 5 7 3 8 -6 3 -9 -6
-11 -4 -6 4 6 10 12 9 24 -2 10 -8 25 -17 35 -20 14 -5 16 -11 8 -25 -6 -11
-6 -24 0 -33 6 -10 9 -11 9 -1 0 7 5 10 10 7 6 -4 8 -11 5 -16 -4 -5 -1 -9 4
-9 16 0 13 16 -4 30 -10 8 -12 17 -6 23 14 14 31 -1 24 -21 -6 -15 -5 -15 11
-3 15 13 19 13 27 0 5 -8 9 -10 9 -5 0 6 5 5 11 -1 6 -6 18 -9 25 -6 8 3 14 0
14 -7 0 -7 6 -10 14 -7 8 3 17 3 21 -1 4 -4 15 -8 26 -8 10 -1 21 -3 24 -4 3
-1 10 -4 15 -5 6 -1 12 -4 15 -5 3 -1 10 -4 15 -5 6 -1 12 -4 15 -5 3 -1 10
-4 15 -5 6 -1 11 -3 13 -4 1 -2 13 -5 27 -7 13 -3 29 -9 34 -14 4 -4 15 -6 22
-3 8 3 14 0 14 -6 0 -6 6 -8 14 -5 7 3 20 -2 29 -11 10 -10 18 -11 22 -5 5 8
11 8 19 1 7 -6 16 -7 20 -3 4 4 7 2 6 -3 -5 -21 1 -29 9 -16 8 12 12 12 24 3
8 -7 19 -12 23 -11 5 1 12 0 17 -1 4 -1 12 -4 17 -5 6 -1 11 -3 13 -5 1 -1 10
-3 20 -6 9 -2 25 -6 35 -8 9 -3 19 -5 22 -6 3 -1 8 -2 13 -1 4 0 7 -3 7 -8 0
-6 9 -8 21 -6 13 3 30 -5 45 -22 14 -16 22 -20 18 -10 -7 18 11 24 21 7 3 -5
17 -10 31 -10 13 0 24 -4 24 -9 0 -6 9 -8 20 -6 11 2 26 -3 34 -11 11 -10 16
-11 19 -1 4 7 6 8 6 1 1 -6 -7 -18 -16 -25 -15 -12 -16 -12 -8 1 8 13 7 13
-11 0 -18 -14 -18 -14 -4 5 14 19 14 19 -2 6 -10 -7 -15 -18 -11 -25 4 -6 -1
-5 -10 3 -15 12 -17 11 -17 -3 0 -10 -5 -14 -10 -11 -8 5 -8 11 0 20 8 9 8 15
0 20 -6 3 -7 11 -4 17 4 6 -3 5 -16 -2 -18 -10 -21 -10 -15 2 3 7 -1 4 -9 -6
-12 -15 -16 -16 -16 -5 -1 10 -3 9 -11 -4 -11 -18 -29 -14 -29 6 0 8 3 8 9 -1
7 -11 9 -11 14 0 3 9 -3 14 -18 14 -14 0 -21 -5 -18 -13 3 -6 -12 3 -31 22
-24 22 -42 32 -54 28 -14 -5 -14 -3 2 9 19 15 19 15 0 13 -11 0 -24 -4 -29 -7
-6 -3 -18 -4 -28 -3 -9 2 -15 -1 -12 -6 4 -5 -1 -6 -10 -2 -13 5 -14 7 -3 14
10 7 10 9 -2 10 -8 1 -19 1 -23 0 -5 -1 -5 4 -1 10 4 8 3 9 -5 5 -6 -4 -9 -12
-6 -17 4 -5 1 -9 -5 -9 -7 0 -10 7 -6 18 4 11 0 9 -12 -6 -18 -23 -52 -22 -52
0 0 6 7 5 15 -2 19 -16 33 -4 15 13 -10 10 -11 9 -5 -2 5 -10 4 -12 -4 -7 -6
4 -8 12 -5 18 4 6 2 8 -4 4 -6 -3 -13 -2 -17 3 -5 10 -35 8 -58 -4 -6 -4 -1 3
13 15 14 12 19 19 13 15 -22 -11 -54 -14 -48 -5 3 6 -1 7 -10 4 -9 -4 -14 -13
-11 -21 3 -8 1 -11 -4 -8 -6 3 -10 1 -10 -5 0 -7 6 -10 13 -7 6 2 11 11 9 18
-3 11 -1 11 8 3 9 -9 9 -17 0 -34 -11 -20 -10 -21 9 -10 12 6 21 15 21 20 0 6
4 10 8 10 5 0 9 -7 9 -15 0 -8 -4 -15 -9 -15 -5 0 -6 -5 -3 -10 4 -6 15 -1 26
12 20 23 20 23 14 1 -3 -12 -1 -24 4 -28 7 -4 8 1 4 11 -6 15 -1 14 25 -5 28
-19 31 -20 25 -4 -6 16 -5 16 10 4 9 -7 14 -18 10 -24 -3 -6 -1 -7 6 -3 9 6 9
11 0 22 -9 10 -9 14 0 14 6 0 14 -7 17 -15 4 -8 11 -15 16 -15 6 0 17 -8 24
-18 13 -16 14 -16 7 3 -6 17 -4 18 8 8 12 -10 18 -10 27 -1 16 16 15 -4 -1
-21 -8 -9 -8 -12 0 -7 6 3 14 0 16 -6 4 -10 6 -10 6 0 1 8 6 10 14 6 8 -5 7
-2 -2 9 -12 15 -12 17 3 11 9 -3 16 -10 16 -14 0 -5 8 -9 18 -9 47 -2 52 -4
46 -25 -4 -16 -3 -17 4 -7 6 8 17 11 25 8 12 -4 14 -2 10 11 -6 15 -5 15 11 3
13 -11 19 -12 29 -2 9 10 8 11 -8 6 -16 -5 -17 -5 -5 3 18 14 29 7 27 -18 -1
-15 -6 -19 -22 -15 -16 5 -17 4 -4 -4 8 -5 24 -9 35 -7 10 2 24 -4 30 -12 13
-18 44 -25 44 -10 0 6 8 2 18 -9 9 -10 14 -14 11 -8 -7 11 -8 45 -2 45 19 0
44 -24 38 -38 -3 -9 -3 -13 1 -9 4 4 19 -3 33 -15 14 -13 20 -16 13 -7 -6 9
-9 19 -5 23 3 3 15 -6 25 -21 10 -16 18 -22 18 -15 0 7 5 10 10 7 6 -4 7 -12
3 -18 -4 -7 0 -7 10 1 9 8 22 10 28 6 7 -4 9 -3 6 3 -4 6 0 14 9 17 12 5 15 2
10 -9 -3 -9 -2 -14 3 -11 5 3 11 -1 15 -9 3 -9 12 -12 22 -8 10 4 15 2 11 -3
-7 -12 52 -12 71 -1 6 5 12 4 12 0 0 -5 -6 -15 -12 -22 -11 -10 -10 -12 2 -9
9 2 14 -3 12 -12 -3 -13 -1 -13 10 -1 10 10 10 15 1 18 -7 2 -9 11 -6 19 4 12
10 9 24 -13 11 -15 19 -23 19 -16 0 7 7 10 15 7 8 -4 12 -11 8 -17 -3 -6 -1
-7 6 -3 6 4 9 11 6 16 -3 4 2 11 11 14 25 10 27 7 13 -11 -7 -10 -9 -15 -5
-11 5 4 15 0 23 -10 12 -16 13 -15 6 3 -6 20 -6 20 15 1 12 -10 19 -24 15 -30
-3 -6 0 -5 8 2 12 11 12 14 -1 22 -9 6 -10 10 -3 10 7 0 17 -8 22 -17 6 -10
11 -13 11 -6 0 15 29 10 39 -6 6 -10 10 -9 15 4 3 9 11 13 17 9 8 -4 7 -9 -2
-15 -12 -7 -12 -10 0 -21 9 -8 11 -9 7 -1 -9 17 14 28 26 12 6 -10 7 -6 2 11
-6 21 -5 23 8 13 8 -7 18 -10 21 -6 7 6 11 -13 7 -32 -1 -5 4 -4 11 2 10 10
16 9 31 -4 11 -10 18 -11 18 -5 0 7 -5 12 -11 12 -5 0 -8 4 -5 8 6 10 42 9 52
-1 4 -4 1 -7 -6 -7 -7 0 -10 -3 -7 -7 4 -3 17 2 28 13 22 19 22 19 15 -6 -6
-19 -5 -21 3 -10 10 13 11 13 12 0 1 -8 1 -19 0 -23 -1 -5 3 -6 8 -2 6 3 8 11
5 19 -3 7 2 13 11 13 8 0 15 -5 15 -11 0 -6 7 -3 14 7 12 15 15 16 26 2 9 -11
16 -12 25 -5 9 7 16 5 26 -7 12 -15 12 -16 -6 -9 -11 4 -16 3 -11 -1 10 -10
56 -11 50 -1 -3 4 2 8 11 8 10 0 13 -5 9 -12 -4 -7 -3 -8 4 -4 17 10 3 36 -16
29 -10 -3 -13 -1 -7 4 6 4 11 15 13 23 1 10 -2 9 -13 -4 -8 -11 -15 -15 -15
-9 0 7 5 15 10 18 6 4 7 11 4 17 -5 7 -2 8 6 3 9 -5 11 -4 6 4 -4 6 -11 9 -16
6 -5 -3 -11 -1 -15 5 -3 5 -12 10 -18 10 -8 0 -8 -3 2 -9 9 -6 10 -11 2 -15
-6 -4 -11 -3 -11 1 0 5 -10 10 -22 10 -19 2 -20 0 -8 -8 12 -9 12 -10 -3 -5
-10 3 -16 2 -13 -3 3 -4 -5 -7 -17 -7 -12 1 -29 -3 -37 -8 -13 -10 -13 -9 0 8
12 16 12 18 1 11 -9 -5 -12 -4 -8 2 4 6 0 16 -8 23 -8 7 -15 16 -15 21 0 14
37 5 58 -14 22 -20 39 -23 24 -4 -9 10 4 13 63 12 40 0 71 -3 69 -7 -2 -4 0
-9 6 -13 5 -3 10 -2 10 3 0 6 7 13 16 16 8 3 12 2 9 -4 -3 -6 -1 -10 4 -10 6
0 11 6 11 13 0 7 3 8 8 2 4 -6 64 -10 147 -9 77 0 146 -4 153 -9 8 -6 12 -5
12 2 0 12 27 10 48 -2 6 -5 12 -4 12 1 0 4 14 8 30 8 17 0 30 -4 30 -8 0 -5 6
-6 13 -1 19 12 47 14 47 4 0 -6 -5 -13 -10 -16 -6 -4 -7 -12 -3 -18 4 -7 -2
-5 -13 3 -18 14 -18 14 -5 -2 7 -10 18 -15 23 -12 6 4 5 -3 -1 -15 -7 -11 -17
-21 -24 -21 -7 0 -6 4 3 10 13 8 11 13 -10 32 l-24 23 19 -25 20 -25 -22 19
c-13 10 -20 22 -18 26 3 4 -2 11 -11 14 -18 7 -11 -7 20 -43 12 -13 14 -20 6
-15 -25 14 -43 14 -31 0 6 -7 8 -16 4 -19 -3 -4 -1 -7 6 -7 7 0 9 -4 6 -10 -3
-5 -1 -10 5 -10 7 0 9 8 5 21 -6 18 -5 19 14 8 16 -11 18 -16 8 -29 -6 -8 -8
-12 -3 -8 5 4 18 3 30 -3 19 -9 19 -9 4 4 -10 8 -15 17 -11 21 3 3 16 -2 27
-11 20 -17 20 -17 7 0 -7 9 -10 17 -6 17 5 0 18 -8 29 -17 20 -17 20 -17 7 0
-8 10 -9 17 -3 17 6 0 14 -5 17 -10 4 -6 11 -8 16 -4 5 3 7 10 4 15 -4 5 -1 9
5 9 6 0 13 -7 16 -15 6 -14 37 -16 50 -2 14 13 26 7 15 -7 -9 -11 -9 -16 0
-22 7 -4 9 -3 5 4 -3 6 -1 14 6 19 21 12 38 12 38 0 0 -7 4 -7 9 2 5 8 16 11
24 8 12 -4 14 -2 10 9 -5 14 -3 14 15 3 12 -7 23 -18 25 -24 2 -5 2 1 0 14 -4
21 -2 23 11 12 9 -7 14 -17 11 -21 -3 -5 -1 -11 4 -14 4 -3 8 4 7 16 0 12 4
23 11 25 7 3 11 -3 8 -15 -2 -11 2 -19 11 -19 10 0 11 4 3 14 -16 19 5 17 25
-2 24 -25 27 -17 5 20 -12 19 -25 33 -29 30 -5 -3 -7 3 -5 13 3 16 -4 18 -53
17 -40 -1 -56 -5 -54 -14 1 -8 -2 -10 -10 -5 -8 4 -10 3 -5 -2 5 -5 14 -9 20
-9 5 0 11 -6 13 -13 1 -7 0 -8 -3 -2 -3 7 -11 4 -20 -7 -8 -10 -12 -12 -8 -5
9 17 -14 44 -29 35 -6 -4 -20 -9 -31 -10 -19 -3 -19 -2 -2 11 12 9 14 16 8 21
-6 3 -11 1 -11 -6 0 -8 -3 -9 -13 0 -22 17 -29 0 -10 -23 18 -21 18 -21 -3 -3
-13 10 -29 15 -40 11 -14 -4 -15 -3 -5 4 9 7 10 12 2 16 -6 4 -11 2 -11 -4 0
-6 -5 -8 -11 -4 -8 4 -7 9 2 15 10 6 7 8 -8 7 -15 -2 -20 -8 -18 -20 2 -10 0
-16 -6 -13 -5 4 -7 11 -4 16 4 5 1 9 -4 9 -16 0 -14 -11 6 -32 19 -22 6 -42
-21 -32 -18 7 -16 31 3 26 8 -1 8 4 -1 18 -8 12 -15 15 -19 9 -5 -8 -9 -8 -13
0 -4 6 -2 11 4 11 6 0 8 5 5 10 -3 6 -1 10 4 10 6 0 11 -5 11 -11 0 -6 5 -7
13 -2 16 11 97 11 97 0 0 -4 5 -5 10 -2 6 4 8 9 6 13 -2 4 37 7 87 6 51 0 97
2 102 5 6 3 33 7 60 8 109 7 120 8 127 18 5 6 8 5 8 -3 0 -8 5 -10 13 -5 6 4
26 9 42 11 76 7 100 10 100 12 0 1 10 3 23 6 12 2 22 -1 22 -7 0 -5 5 -7 10
-4 6 4 8 10 5 14 -2 5 9 7 25 6 17 -1 30 2 30 7 0 6 7 8 15 5 8 -4 17 -3 19 2
3 4 18 7 33 6 15 -1 31 2 34 7 3 4 18 9 35 11 16 2 43 9 59 17 17 7 41 14 55
16 36 4 53 8 68 17 7 5 12 3 12 -5 1 -10 4 -9 13 2 7 9 19 15 27 15 8 0 17 3
20 7 3 4 12 -3 19 -15 13 -21 13 -21 -5 -7 -15 11 -16 11 -6 0 15 -17 16 -30
2 -30 -5 0 -9 3 -7 8 1 4 -3 7 -8 7 -5 0 -9 -3 -8 -6 1 -4 -5 -6 -15 -5 -9 0
-16 -3 -15 -9 0 -5 -11 -19 -25 -29 l-27 -20 19 22 c24 28 13 41 -14 17 -17
-15 -22 -16 -37 -4 -17 12 -17 12 -1 -6 17 -18 18 -18 40 1 23 19 23 19 6 -2
-17 -19 -17 -21 0 -39 9 -10 -2 -4 -26 14 -43 33 -72 36 -37 3 18 -16 18 -16
5 3 -15 20 -15 20 10 0 14 -11 26 -20 28 -21 2 -1 -4 -4 -13 -8 -11 -4 -14 -2
-9 6 4 6 3 8 -4 4 -6 -3 -20 6 -32 21 -19 25 -58 44 -44 22 3 -5 10 -7 15 -4
5 4 9 1 9 -4 0 -15 -13 -14 -30 2 -11 9 -11 8 0 -8 14 -19 14 -19 -4 -5 -18
13 -19 13 -12 0 4 -8 1 -7 -7 3 -13 16 -15 16 -21 1 -3 -9 -12 -14 -20 -11
-11 4 -13 -4 -11 -36 3 -28 1 -36 -6 -26 -7 12 -9 12 -9 -1 0 -13 -1 -13 -10
0 -7 12 -9 10 -7 -8 0 -12 5 -22 10 -22 4 0 5 -5 1 -11 -4 -8 -9 -7 -15 2 -4
7 -5 17 -2 23 3 5 1 6 -4 3 -6 -4 -10 1 -9 11 0 10 -6 16 -16 16 -10 -1 -16 2
-13 6 3 5 0 12 -6 16 -7 4 -9 3 -6 -3 4 -6 -3 -10 -16 -9 -14 1 -21 -4 -19
-13 2 -11 0 -12 -11 -3 -8 7 -18 8 -22 4 -5 -4 -4 0 0 8 8 13 7 13 -10 0 -17
-13 -18 -13 -11 0 4 8 -2 4 -13 -9 -23 -25 -29 -18 -8 9 6 9 2 5 -10 -8 -14
-13 -23 -18 -23 -10 0 9 -3 9 -10 -2 -7 -11 -10 -11 -10 -2 0 7 -11 0 -24 -15
-21 -24 -27 -26 -38 -14 -10 11 -10 12 0 7 14 -8 42 10 42 26 0 6 -7 7 -16 4
-10 -4 -13 -2 -9 7 4 6 1 5 -7 -3 -7 -9 -20 -15 -28 -15 -8 1 -19 -1 -25 -4
-18 -10 -54 -8 -48 2 4 6 1 7 -7 2 -7 -4 -15 -2 -20 5 -5 8 -9 7 -13 -5 -4 -9
-3 -13 3 -10 5 3 24 -9 43 -27 18 -18 21 -23 7 -11 -29 25 -40 29 -40 12 0 -5
4 -8 9 -5 5 3 15 -2 22 -12 13 -16 13 -16 -5 -2 -11 8 -17 10 -13 4 4 -7 -2
-11 -16 -10 -13 1 -21 -4 -20 -11 2 -7 -2 -13 -7 -13 -6 0 -10 4 -10 8 0 4 -9
8 -20 9 -11 1 -20 -2 -20 -8 0 -5 10 -9 23 -9 18 0 19 -2 7 -10 -21 -13 -3
-13 22 1 18 10 20 9 15 -5 -3 -8 -1 -18 6 -22 7 -4 9 -4 5 1 -4 4 -2 17 4 28
l11 21 18 -22 c10 -13 20 -18 24 -12 3 5 1 10 -5 10 -6 0 -9 4 -5 10 3 5 12 7
20 4 8 -4 12 -11 9 -16 -4 -6 5 -2 20 7 24 16 31 14 27 -7 -3 -18 18 -6 24 13
6 17 9 19 16 8 7 -12 9 -11 9 1 0 13 2 13 9 0 6 -8 7 -19 3 -25 -3 -5 3 -3 14
5 29 22 30 24 12 17 -10 -4 -18 -3 -18 2 0 15 13 20 30 11 12 -7 21 -6 29 4 6
7 10 15 8 17 -1 2 3 1 8 -4 6 -5 1 -16 -14 -28 -34 -28 -15 -23 23 6 19 14 41
23 54 20 16 -3 20 0 15 13 -3 10 3 7 16 -8 16 -19 20 -20 14 -6 -4 14 -3 17 6
12 7 -4 23 -9 36 -11 20 -2 23 1 15 16 -15 26 -12 31 9 17 11 -7 17 -16 14
-22 -3 -5 -1 -6 5 -2 6 4 8 14 5 24 -6 14 -4 15 9 4 10 -8 19 -9 22 -3 4 5 14
10 24 9 9 0 27 3 40 5 13 4 22 1 22 -6 0 -7 5 -4 11 6 5 9 17 17 24 17 8 0 15
4 15 10 0 5 7 7 15 4 8 -4 15 -1 15 6 0 6 5 8 10 5 6 -4 8 -10 6 -14 -3 -3 4
-7 14 -7 12 0 16 5 12 16 -5 13 -4 13 13 0 14 -11 17 -12 11 -1 -6 9 -5 12 5
9 8 -3 13 -11 11 -17 -1 -7 2 -10 8 -6 8 5 7 12 -2 22 -11 14 -10 15 10 9 12
-4 22 -3 22 2 0 9 8 11 53 14 12 1 28 10 35 20 17 23 33 23 26 1 -5 -14 -4
-15 4 -4 8 11 10 11 15 0 4 -11 6 -10 6 2 1 16 5 18 57 22 21 1 30 6 27 14 -3
7 -1 13 5 13 6 0 12 -6 15 -12 3 -10 7 -10 20 1 11 9 17 10 17 2 0 -6 5 -11
12 -11 9 0 9 3 0 12 -17 17 -15 33 3 18 9 -7 18 -10 22 -6 3 3 1 6 -6 6 -7 0
-10 4 -6 10 3 5 12 7 20 4 8 -4 13 -9 10 -13 -2 -4 2 -8 10 -8 8 0 15 4 15 9
0 4 -4 8 -10 8 -5 0 -10 4 -10 10 0 15 24 7 32 -10 5 -12 7 -11 7 3 1 11 6 17
14 14 6 -2 11 -10 9 -16 -1 -7 3 -9 9 -6 8 5 8 10 0 18 -14 14 -14 50 -1 42 6
-4 8 -10 5 -14 -2 -5 5 -17 18 -27 16 -14 18 -14 9 -2 -9 11 -10 18 -2 23 5 3
10 0 10 -7 0 -7 7 -2 16 10 12 18 19 21 30 11 7 -6 12 -15 9 -19 -3 -5 -1 -11
4 -14 4 -3 8 4 7 16 0 12 5 23 13 26 9 3 11 0 6 -8 -6 -9 -4 -11 5 -5 10 6 9
11 -5 21 -10 7 -22 11 -26 8 -11 -6 -30 31 -21 41 4 5 0 4 -8 0 -10 -5 -8 -1
4 13 11 12 24 22 30 22 6 0 5 -4 -3 -9 -9 -6 -10 -11 -2 -15 6 -4 11 -3 11 1
0 5 11 9 24 9 14 0 22 -4 19 -10 -4 -5 -1 -6 8 -1 11 7 12 6 2 -7 -7 -8 -9
-19 -5 -23 4 -5 1 -5 -7 0 -10 6 -12 4 -6 -6 8 -12 6 -12 -8 0 -9 7 -14 17
-11 22 3 5 1 9 -5 9 -14 0 -21 -14 -13 -25 11 -16 55 -39 47 -24 -5 7 -3 10 6
7 8 -3 13 -12 11 -19 -2 -8 8 -1 21 16 21 25 27 28 40 16 14 -11 21 -10 45 8
16 11 33 17 37 13 5 -4 5 -2 1 5 -3 6 -2 14 4 18 5 3 10 -2 11 -12 0 -11 3
-13 6 -5 2 6 9 9 15 6 6 -4 14 -1 18 6 6 9 13 9 28 1 14 -7 23 -8 27 -1 4 6 3
10 -2 9 -18 -3 -36 1 -29 8 11 11 46 10 46 -1 0 -6 4 -5 9 3 5 7 14 10 20 7 6
-4 8 -12 5 -18 -5 -7 -2 -8 5 -3 9 5 10 10 2 18 -15 15 -14 32 2 20 15 -13 48
-13 40 0 -3 5 4 6 18 2 22 -7 23 -6 6 7 -18 13 -18 15 -1 29 16 12 17 12 11
-3 -3 -10 -2 -18 3 -18 6 0 10 7 10 16 0 8 4 13 9 10 5 -3 12 1 15 10 3 8 10
12 16 9 6 -4 7 1 3 12 -6 16 -5 16 10 4 15 -12 17 -12 11 4 -5 11 -3 16 2 12
6 -3 16 -2 24 4 10 6 11 9 3 9 -7 0 -13 5 -13 11 0 5 4 8 9 5 4 -3 15 2 23 12
12 14 14 65 13 307 -1 160 -3 295 -5 300 -1 6 -1 12 0 15 7 15 5 108 -2 104
-10 -6 -11 10 0 20 4 4 7 119 7 255 0 226 -1 247 -17 247 -9 0 -15 -2 -13 -4
2 -3 0 -14 -6 -25 -8 -14 -8 -18 0 -13 6 4 11 3 11 -3 0 -5 -3 -11 -7 -14 -5
-2 -3 -2 4 -1 6 2 14 -4 17 -12 6 -16 -2 -18 -24 -4 -9 5 -15 25 -16 47 0 21
-3 45 -5 53 -2 9 2 14 11 12 10 -1 9 2 -4 13 -12 9 -15 15 -7 15 9 0 10 4 4
13 -6 6 -9 28 -8 47 0 19 -1 40 -4 45 -3 6 -6 26 -6 46 -1 26 3 36 13 35 19
-3 35 -33 22 -41 -5 -3 -10 3 -10 15 0 12 -5 18 -10 15 -6 -4 -7 -13 -1 -23 4
-9 7 -25 6 -35 -2 -10 1 -14 7 -11 7 5 8 2 3 -7 -13 -20 -13 -49 -1 -42 6 3 5
0 -1 -8 -7 -7 -13 -18 -13 -23 0 -6 4 -5 9 3 6 9 11 10 15 2 4 -6 2 -11 -5
-11 -8 0 -7 -5 2 -17 12 -14 12 -16 0 -8 -10 5 -12 4 -7 -3 13 -21 23 -13 23
18 0 17 -4 30 -9 30 -5 0 -6 5 -3 10 4 6 10 8 14 6 15 -9 5 33 -12 52 -9 10
-14 22 -10 25 10 10 25 8 19 -2 -3 -5 2 -15 12 -22 15 -12 16 -12 6 1 -6 8
-10 25 -9 37 1 12 -2 20 -7 17 -11 -7 -5 39 7 49 6 5 -1 5 -13 2 -22 -6 -23
-5 -13 14 7 12 8 21 4 21 -4 0 -1 5 7 11 11 8 9 9 -10 3 -22 -6 -23 -5 -11 9
7 9 17 15 21 12 5 -3 11 -1 14 4 4 5 -2 8 -11 6 -10 -2 -18 -4 -18 -5 0 -1 -9
-3 -21 -5 -23 -5 -23 -4 -27 107 -1 32 -5 58 -9 58 -5 0 -8 9 -8 21 0 12 5 19
13 17 6 -3 12 -11 12 -19 0 -8 5 -17 10 -21 6 -5 6 -8 -1 -8 -14 0 -13 -42 1
-52 6 -5 4 -8 -4 -8 -11 0 -9 -4 5 -14 10 -8 16 -18 11 -22 -4 -4 -7 -2 -7 4
0 7 -5 12 -11 12 -8 0 -9 -4 0 -13 6 -8 7 -18 3 -23 -4 -4 1 -2 11 5 10 8 16
20 13 26 -2 7 0 17 6 23 8 8 8 15 0 25 -7 8 -8 18 -4 22 4 5 2 5 -4 2 -7 -4
-11 5 -12 25 0 17 -6 34 -13 38 -8 6 -8 9 2 14 8 3 4 3 -9 0 -21 -5 -22 -4
-11 15 11 16 16 18 29 8 12 -9 13 -9 3 3 -17 19 -43 22 -36 4 3 -8 1 -14 -5
-14 -11 0 -11 18 0 35 3 6 1 19 -3 30 -9 18 -9 18 -5 -3 2 -12 0 -20 -5 -16
-13 8 -11 42 4 47 7 3 5 6 -5 6 -12 1 -15 6 -11 18 4 11 3 14 -5 9 -7 -4 -12
-1 -12 9 0 24 -57 120 -95 160 -72 76 -143 103 -287 110 -387 17 -526 43 -587
110 -38 42 -70 59 -139 74 -77 16 -2536 14 -2612 -3z m3810 -728 c-8 -7 -12
-9 -8 -4 4 5 2 18 -4 30 -10 20 -10 20 8 4 16 -15 16 -20 4 -30z m-5 -119 c-3
-15 0 -19 11 -15 12 4 12 2 4 -14 -9 -16 -8 -22 5 -26 8 -3 15 -10 15 -14 0
-5 -11 -3 -24 3 -18 9 -22 15 -14 25 8 10 7 11 -8 6 -16 -5 -16 -4 -4 5 13 9
13 11 0 11 -13 0 -13 1 0 10 13 9 13 10 0 10 -13 0 -13 1 0 10 20 13 19 13 15
-11z m38 -185 c-4 -12 -8 -13 -14 -3 -9 15 -2 32 11 24 5 -3 6 -13 3 -21z m2
-234 c11 -18 14 -50 4 -55 -5 -4 -9 -11 -9 -16 0 -6 3 -8 8 -6 4 3 7 -12 7
-32 1 -23 -4 -38 -12 -38 -6 0 -12 3 -11 6 0 3 -1 8 -2 11 -8 18 -5 70 4 70 6
0 4 5 -4 10 -10 6 -11 10 -2 10 6 0 12 5 12 11 0 5 -4 8 -8 5 -4 -2 -9 4 -9
15 -2 20 12 26 22 9z m10 -283 c0 -64 -2 -117 -5 -117 -3 0 -6 28 -7 63 -1 34
-3 88 -6 120 -4 42 -2 57 6 54 8 -2 12 -41 12 -120z m0 -756 c0 -97 -5 -116
-28 -116 -7 0 -11 -8 -11 -18 1 -9 -2 -14 -7 -12 -4 3 -22 -8 -39 -25 -17 -17
-35 -28 -40 -25 -5 3 -20 -9 -34 -27 -20 -26 -28 -30 -37 -21 -10 10 -16 10
-27 1 -29 -25 -65 -18 -44 8 4 5 -7 -6 -26 -24 -26 -25 -37 -30 -51 -22 -14 7
-23 5 -36 -10 -10 -11 -20 -18 -23 -15 -3 2 -11 -3 -17 -12 -11 -15 -15 -15
-29 -4 -14 12 -19 11 -37 -5 -17 -15 -22 -16 -29 -4 -5 9 -5 19 1 26 11 13 -5
28 -31 29 -8 0 -21 4 -29 9 -9 6 -21 0 -38 -17 l-25 -24 22 -26 c13 -15 28
-24 33 -20 6 4 7 1 2 -6 -5 -9 -10 -10 -18 -2 -8 8 -16 6 -29 -6 -10 -9 -18
-13 -18 -8 0 4 -8 1 -17 -6 -9 -8 -14 -9 -10 -3 4 7 0 17 -7 24 -12 9 -18 6
-30 -17 -8 -15 -15 -21 -16 -13 0 13 -1 13 -10 0 -5 -8 -10 -11 -10 -6 0 5 -7
3 -15 -4 -8 -7 -15 -9 -15 -5 0 4 -7 2 -15 -5 -8 -7 -15 -9 -15 -4 0 5 -9 -2
-20 -16 -17 -22 -19 -23 -26 -7 -6 17 -7 17 -26 0 -21 -19 -37 -24 -84 -26
-18 -1 -41 -10 -52 -20 -14 -13 -22 -15 -27 -7 -6 9 -9 9 -15 0 -4 -6 -13 -12
-21 -13 -8 -2 -20 -6 -26 -10 -8 -5 -13 -4 -13 3 0 6 -10 4 -25 -6 -14 -9 -25
-13 -25 -9 0 4 -6 2 -14 -4 -10 -8 -16 -9 -21 -1 -3 6 -10 8 -15 5 -16 -10
-20 13 -5 25 8 7 15 9 15 4 0 -5 4 -3 9 5 7 10 14 12 23 5 8 -5 5 -1 -6 9 -19
17 -19 18 12 12 24 -4 34 -1 41 13 7 13 7 22 -1 30 -13 13 -8 22 14 26 7 2 21
6 31 11 10 4 24 2 34 -6 15 -12 16 -12 10 3 -4 12 -2 15 9 11 7 -3 14 0 14 7
0 7 7 10 15 7 8 -4 17 -2 21 4 4 6 11 6 20 -2 12 -10 13 -9 7 6 -5 14 -3 17 9
12 9 -3 19 -3 23 1 4 4 11 8 16 8 5 1 10 2 12 4 9 7 37 6 37 -2 0 -6 -8 -7
-17 -3 -14 5 -15 3 -6 -6 13 -13 33 -4 33 17 0 14 9 18 48 16 12 -1 20 3 17 8
-3 4 3 7 12 5 10 -1 24 2 31 8 6 5 12 6 12 1 0 -5 4 -4 8 2 10 15 62 27 62 14
0 -5 5 -10 10 -10 6 0 9 6 8 13 -2 6 6 12 17 12 11 0 22 3 25 7 3 4 15 9 25
11 11 2 28 7 37 11 9 4 23 9 32 10 8 1 19 5 22 9 13 13 25 7 22 -9 -2 -10 2
-19 9 -21 6 -2 10 4 9 14 -3 18 39 47 55 37 5 -3 9 -1 9 5 0 5 9 8 20 6 11 -2
20 1 20 6 0 6 9 7 21 4 16 -6 20 -4 14 6 -5 8 -5 11 0 7 4 -4 13 -3 20 2 6 5
21 11 33 13 12 2 30 11 42 22 11 10 20 14 20 10 0 -5 10 1 23 13 12 11 27 22
32 24 6 2 9 6 8 10 -2 4 4 5 12 2 9 -4 15 0 15 10 0 9 5 15 12 14 7 -2 12 2
13 9 0 6 12 25 28 42 15 17 25 31 21 31 -3 0 -2 6 3 13 4 6 8 15 9 20 7 37 9
17 9 -82z m-4423 -312 c2 -2 1 -3 -1 -2 -2 2 -9 -2 -16 -7 -8 -7 -12 -5 -12 4
0 12 22 16 29 5z m103 -28 c-9 -16 30 -32 43 -19 7 7 12 8 12 4 0 -5 7 -3 16
4 12 11 15 11 12 -1 -2 -8 4 -13 13 -13 9 1 30 -9 45 -22 22 -17 24 -22 11
-20 -10 1 -23 9 -28 17 -5 8 -9 10 -9 6 0 -4 -9 -3 -19 3 -14 7 -22 7 -26 0
-4 -6 -12 -7 -18 -3 -7 4 -18 8 -25 9 -20 3 -42 25 -36 35 3 5 7 9 10 9 3 0 3
-4 -1 -9z m452 -88 c10 -5 25 -9 33 -8 8 1 21 -3 28 -8 6 -5 12 -6 12 -2 0 4
6 2 13 -4 8 -6 18 -7 23 -3 4 4 2 -2 -6 -12 -16 -21 -17 -21 35 0 8 3 15 1 15
-4 0 -6 9 -9 20 -7 11 2 22 0 25 -5 3 -5 14 -7 25 -5 13 3 18 0 14 -7 -5 -8
-1 -9 10 -5 9 4 14 3 11 -2 -3 -5 -1 -12 4 -15 5 -3 12 1 15 10 6 14 9 15 29
2 12 -8 31 -14 42 -12 10 2 24 -1 30 -5 5 -4 22 -7 37 -6 15 1 25 -1 23 -5 -3
-4 10 -8 28 -8 51 0 111 -7 122 -13 6 -3 26 -5 46 -4 25 1 35 -3 32 -11 -8
-21 19 -28 34 -9 10 14 13 15 14 4 0 -11 2 -11 6 -1 8 20 37 -26 39 -63 2 -25
1 -27 -7 -12 -8 14 -14 15 -24 7 -7 -6 -16 -7 -19 -2 -4 7 -51 9 -51 2 0 -1
-8 -3 -17 -5 -10 -2 -15 2 -12 10 4 9 -1 12 -13 11 -10 -2 -23 1 -30 6 -7 6
-14 5 -18 -2 -5 -8 -10 -8 -20 0 -9 8 -15 8 -20 0 -3 -6 -12 -7 -18 -3 -7 4
-19 8 -27 8 -8 0 -21 4 -27 8 -7 5 -17 6 -22 2 -5 -3 -12 -1 -16 5 -4 6 -11 8
-16 4 -5 -3 -9 -2 -8 3 5 27 -1 35 -16 23 -25 -21 -64 -21 -75 0 -9 18 -24 21
-45 9 -5 -4 -19 -5 -30 -3 -11 1 -29 4 -40 6 -11 2 -26 13 -33 26 -10 18 -17
20 -31 12 -10 -5 -21 -6 -25 -3 -3 3 -6 1 -6 -6 0 -7 -5 -9 -12 -4 -7 4 -16 8
-20 8 -5 0 -8 4 -7 9 0 5 -5 12 -12 17 -8 5 -10 12 -3 21 5 8 1 4 -10 -8 l-19
-22 -35 35 c-26 26 -37 32 -43 22 -4 -7 -5 -18 -2 -24 4 -5 3 -7 -2 -3 -4 4
-16 3 -26 -2 -14 -8 -21 -6 -29 10 -6 11 -7 20 -3 19 4 -1 10 0 13 1 10 3 45
11 58 12 7 1 11 7 8 14 -5 14 19 12 51 -3z m2498 -89 c6 0 17 3 26 7 11 6 23
1 39 -16 19 -20 27 -22 44 -14 18 9 17 7 -3 -9 -16 -13 -36 -18 -58 -16 -24 2
-32 0 -27 -9 5 -9 4 -9 -6 0 -11 10 -16 9 -26 -5 -12 -16 -13 -16 -19 1 -7 16
-9 16 -19 2 -9 -13 -11 -10 -12 17 0 34 23 62 41 50 5 -4 15 -7 20 -8z m-159
-46 c3 -4 13 -4 22 -1 11 5 14 2 10 -9 -4 -9 -2 -20 4 -26 12 -12 -9 -11 -29
1 -7 4 -16 0 -22 -10 -7 -13 -10 -14 -11 -4 0 11 -4 11 -19 -3 -16 -15 -19
-15 -31 -1 -16 19 -34 20 -27 0 4 -8 1 -17 -5 -21 -7 -4 -8 -3 -4 4 7 12 -19
12 -39 1 -5 -4 -18 -5 -28 -3 -10 1 -21 -4 -24 -12 -3 -8 -10 -11 -17 -7 -14
10 -29 11 -36 3 -3 -4 -17 8 -33 26 -22 26 -24 32 -10 29 10 -1 23 0 28 4 16
9 36 10 30 1 -3 -4 2 -13 10 -20 13 -11 20 -9 38 7 13 12 34 19 50 18 16 -1
31 3 33 10 4 9 44 13 62 6 6 -3 17 5 15 11 -3 8 24 4 33 -4z m-1646 -8 c0 -5
-5 -10 -11 -10 -5 0 -7 5 -4 10 3 6 8 10 11 10 2 0 4 -4 4 -10z m1445 -10 c-3
-5 -12 -10 -18 -10 -7 0 -6 4 3 10 19 12 23 12 15 0z m-1236 -56 c-9 -11 -9
-17 1 -29 7 -8 8 -15 2 -15 -14 0 -33 25 -25 33 3 4 2 7 -4 7 -6 0 -14 -7 -17
-16 -6 -15 -8 -15 -24 0 -14 12 -21 13 -30 4 -9 -9 -12 -9 -12 3 0 12 -2 12
-11 -1 -8 -12 -10 -12 -7 -1 2 8 17 16 34 18 54 5 74 9 80 16 13 13 25 -5 13
-19z m637 14 c4 4 3 0 -4 -9 -7 -9 -11 -22 -10 -29 2 -7 -5 -14 -14 -15 -16
-3 -16 -1 -3 18 11 16 12 24 2 36 -10 14 -10 14 4 4 9 -7 20 -9 25 -5z m94
-13 c6 4 20 -1 30 -10 11 -10 24 -14 31 -9 17 10 59 14 59 6 -1 -18 -18 -28
-45 -26 -16 1 -34 -1 -40 -5 -17 -10 -29 -8 -47 7 -18 15 -43 7 -32 -10 4 -7
2 -8 -5 -4 -8 6 -9 12 -2 20 6 7 9 23 6 35 -4 23 -4 23 15 6 10 -9 24 -14 30
-10z m235 5 c1 -8 6 -14 12 -13 6 1 14 -5 17 -14 6 -14 4 -14 -18 0 -22 15
-25 15 -31 -1 -7 -16 -8 -16 -18 0 -10 15 -12 15 -25 0 -7 -9 -10 -11 -7 -4 4
7 0 21 -9 31 -15 16 -13 17 32 16 34 0 47 -5 47 -15z m135 -16 c0 -8 -19 -13
-24 -6 -3 5 1 9 9 9 8 0 15 -2 15 -3z m40 0 c0 -8 -19 -13 -24 -6 -3 5 1 9 9
9 8 0 15 -2 15 -3z"/>
<path d="M5083 2632 c2 -12 6 -24 10 -28 3 -4 4 4 2 16 -2 12 -7 25 -10 28 -3
3 -4 -4 -2 -16z"/>
<path d="M5067 1702 c-15 -16 -25 -31 -21 -34 3 -3 -11 -19 -30 -35 -20 -15
-38 -26 -40 -23 -3 3 -16 -6 -30 -19 -14 -14 -26 -21 -26 -16 0 5 -11 -2 -25
-15 -14 -13 -25 -20 -25 -16 0 5 -7 3 -15 -4 -8 -7 -15 -9 -15 -5 0 5 -9 0
-19 -9 -11 -10 -24 -15 -30 -12 -5 4 -12 2 -16 -4 -4 -6 -11 -8 -16 -5 -5 4
-9 2 -9 -4 0 -5 -11 -8 -25 -7 -14 2 -32 -5 -41 -15 -10 -11 -14 -19 -9 -19 4
0 2 -7 -5 -15 -11 -13 -14 -13 -25 2 -7 10 -11 22 -7 28 3 5 -2 4 -11 -4 -9
-7 -17 -10 -17 -6 0 4 -7 2 -15 -5 -8 -7 -15 -9 -15 -5 0 4 -7 1 -17 -6 -9 -8
-18 -13 -20 -11 -1 1 -3 -1 -3 -5 0 -5 8 -8 18 -8 28 0 54 -25 42 -40 -16 -19
2 -27 22 -9 13 13 21 14 31 5 11 -9 17 -8 27 4 7 8 16 13 20 10 4 -2 15 4 25
15 13 14 22 17 35 10 15 -8 25 -3 51 25 18 19 36 32 41 29 5 -3 4 -12 -2 -19
-14 -17 11 -15 33 3 11 10 17 10 22 2 5 -8 17 -2 36 16 16 15 35 29 43 30 8 1
30 19 50 40 20 22 42 39 49 39 8 0 12 23 12 73 0 39 0 72 0 72 -1 0 -13 -13
-28 -28z m19 -54 c0 -34 -1 -57 -3 -51 -2 6 -25 -11 -50 -38 -25 -27 -48 -47
-51 -44 -3 3 -20 -9 -38 -26 -21 -21 -34 -27 -39 -19 -5 8 -13 6 -28 -7 -12
-10 -19 -14 -15 -9 4 5 3 15 -4 23 -9 12 -17 8 -47 -21 -26 -25 -40 -33 -51
-26 -12 8 -12 11 3 28 9 10 17 22 17 27 0 4 -16 -13 -36 -39 -19 -25 -39 -44
-43 -41 -5 2 -14 -2 -21 -10 -10 -12 -16 -13 -27 -4 -10 9 -18 7 -36 -7 -13
-12 -17 -13 -9 -3 10 13 8 20 -11 37 -13 12 -27 19 -32 15 -4 -5 -5 -2 -1 5 4
7 11 10 16 7 5 -3 11 -1 14 4 7 11 30 9 33 -3 1 -5 7 -12 14 -17 15 -9 52 18
44 32 -7 11 15 23 47 24 14 1 33 7 41 13 7 7 17 9 20 5 4 -3 16 2 27 12 11 10
20 15 20 10 0 -4 7 -2 15 5 8 7 15 9 15 4 0 -4 11 3 25 16 14 13 25 20 25 15
0 -5 10 1 23 13 13 12 26 20 29 17 2 -3 24 11 47 31 23 20 39 39 36 42 -4 4
22 42 29 42 1 0 1 -28 2 -62z"/>
<path d="M5069 1685 c-1 -3 -2 -9 -3 -13 -1 -11 -66 -85 -66 -76 0 3 -7 1 -15
-6 -8 -7 -15 -9 -15 -4 0 4 -11 -3 -25 -16 -14 -13 -25 -20 -25 -15 0 5 -11
-2 -25 -15 -14 -13 -25 -20 -25 -16 0 5 -7 3 -15 -4 -8 -7 -15 -9 -15 -5 0 5
-9 0 -19 -9 -11 -10 -25 -15 -32 -10 -8 5 -10 3 -5 -5 5 -7 1 -20 -9 -31 -31
-34 2 -29 35 5 31 32 35 33 51 19 12 -11 19 -12 24 -4 5 8 11 8 19 1 9 -8 20
-3 41 19 15 16 31 27 36 25 4 -3 27 17 51 44 35 38 44 56 44 85 0 32 -3 46 -7
31z m-2 -50 c0 -19 -77 -109 -85 -100 -3 3 -20 -9 -38 -26 -21 -20 -34 -27
-39 -19 -5 8 -10 8 -20 0 -9 -7 -16 -6 -25 5 -7 8 -10 15 -6 15 17 0 23 3 44
22 12 12 22 18 22 13 0 -5 11 2 25 15 14 13 25 20 25 16 0 -5 6 -4 13 2 6 6
16 11 20 11 4 0 19 14 33 31 30 35 31 35 31 15z m-227 -128 c0 -2 -17 -19 -37
-38 l-38 -34 34 38 c33 34 41 42 41 34z"/>
<path d="M5030 1600 c-12 -17 -25 -28 -30 -25 -5 3 -11 1 -15 -5 -4 -6 -10 -8
-14 -5 -5 2 -16 -4 -26 -15 -10 -11 -21 -17 -25 -15 -4 2 -15 -4 -25 -15 -10
-11 -22 -17 -28 -13 -6 3 -7 1 -3 -6 6 -9 11 -9 21 -1 10 8 15 8 20 0 5 -8 19
0 41 21 19 18 34 29 34 24 0 -4 9 0 21 11 24 21 63 74 55 74 -2 0 -14 -14 -26
-30z m-85 -70 c-25 -26 -54 -33 -39 -9 3 5 9 7 13 4 5 -2 16 4 26 15 10 11 20
20 23 20 3 0 -7 -13 -23 -30z"/>
<path d="M4693 1468 c-2 -5 -1 -8 3 -8 4 0 -3 -11 -16 -25 -18 -19 -27 -22
-42 -14 -10 5 -16 14 -13 19 3 4 -3 7 -12 5 -10 -2 -20 -4 -22 -4 -2 -1 4 -10
14 -21 10 -11 22 -17 27 -14 5 3 15 1 22 -5 10 -8 17 -7 26 4 7 8 16 13 20 10
4 -3 19 10 33 28 l25 33 -30 -1 c-16 0 -32 -3 -35 -7z m30 -16 c-10 -7 -17
-15 -15 -17 1 -3 0 -5 -3 -5 -3 0 -15 -8 -27 -17 -17 -13 -16 -10 5 13 15 17
25 32 23 35 -3 3 4 5 15 5 19 0 19 -1 2 -14z m-102 -29 c13 -16 12 -17 -3 -4
-17 13 -22 21 -14 21 2 0 10 -8 17 -17z"/>
<path d="M4475 1419 c3 -3 -1 -12 -9 -18 -10 -9 -15 -8 -20 4 -5 14 -8 14 -36
0 -16 -8 -30 -13 -30 -9 0 4 -7 1 -15 -6 -8 -7 -15 -9 -15 -5 0 4 -6 3 -13 -3
-7 -6 -22 -9 -32 -8 -12 2 -28 -7 -41 -22 -14 -18 -25 -23 -35 -16 -20 12 -38
14 -45 3 -3 -5 -10 -7 -15 -4 -5 3 -6 -1 -3 -9 7 -18 -11 -22 -21 -6 -5 8 -11
7 -21 -1 -8 -6 -14 -8 -14 -3 0 4 -11 -3 -24 -15 -14 -13 -27 -18 -30 -13 -5
8 -34 9 -43 2 -3 -2 -15 -6 -29 -9 -4 0 -2 -7 4 -14 16 -19 -14 -60 -37 -53
-13 5 -13 4 2 -8 15 -12 15 -14 3 -19 -9 -4 -18 -2 -22 4 -4 6 -10 7 -17 0 -7
-5 -16 -10 -22 -11 -5 -1 -12 -4 -15 -7 -3 -4 0 -3 7 1 6 3 15 2 18 -4 5 -8
11 -7 21 1 8 6 14 8 14 5 0 -4 10 -1 23 6 12 6 31 12 43 12 11 1 28 7 37 14
11 9 17 10 22 2 5 -8 14 -5 30 10 12 11 29 20 36 18 8 -2 13 4 11 12 -1 10 2
9 13 -4 8 -11 15 -15 15 -9 0 6 8 10 18 8 9 -1 27 6 38 17 15 14 24 16 29 8 5
-8 13 -6 26 6 10 9 19 14 19 9 0 -4 7 -2 15 5 8 7 15 10 15 6 0 -4 11 1 25 10
14 9 25 13 25 8 0 -5 7 2 16 14 14 20 18 21 33 10 18 -16 30 -17 49 -4 10 6
10 11 1 22 -6 7 -15 11 -20 8 -18 -11 -8 11 16 36 18 19 21 27 11 27 -8 0 -13
-4 -11 -8z m-40 -19 c-3 -5 0 -10 7 -10 10 0 10 -2 -1 -9 -11 -7 -11 -10 0
-17 8 -5 17 -9 22 -9 4 0 7 -4 7 -9 1 -15 -28 -16 -40 -1 -9 11 -18 8 -50 -12
-21 -14 -40 -24 -43 -22 -2 2 -11 -2 -20 -10 -10 -7 -17 -10 -17 -6 0 5 -9 0
-19 -9 -13 -12 -21 -14 -26 -6 -5 8 -13 6 -27 -7 -19 -17 -72 -28 -63 -12 3 4
-2 9 -10 13 -17 6 -29 -9 -19 -26 5 -7 3 -8 -5 -3 -7 4 -22 -2 -36 -15 -15
-14 -25 -18 -30 -10 -5 8 -11 7 -22 -2 -9 -7 -30 -13 -46 -14 -30 -1 -30 -1
-11 15 21 18 23 29 10 50 -6 9 -5 12 2 7 6 -3 13 -2 16 3 7 10 25 9 42 -2 6
-3 19 2 29 13 10 11 21 17 26 15 4 -3 11 -1 14 5 5 8 11 8 20 0 14 -12 41 -3
47 15 5 15 27 15 36 -2 7 -12 14 -9 35 17 15 17 27 26 27 18 0 -10 3 -9 10 2
8 12 10 12 10 1 0 -11 5 -10 20 4 11 10 20 15 20 10 0 -4 6 -3 13 2 6 6 20 9
29 8 9 -2 22 3 29 11 13 16 23 19 14 4z"/>
<path d="M4416 1381 c-4 -5 -14 -8 -24 -6 -9 1 -23 -2 -29 -8 -7 -5 -13 -6
-13 -2 0 5 -8 1 -17 -7 -10 -8 -25 -14 -33 -13 -8 1 -27 -10 -42 -23 -24 -22
-28 -23 -34 -8 -6 15 -7 15 -23 -1 -20 -23 -39 -27 -56 -13 -9 8 -15 8 -20 0
-3 -6 -10 -8 -14 -5 -5 2 -16 -4 -26 -15 -11 -12 -23 -17 -29 -12 -21 15 -41
7 -41 -16 0 -12 -7 -27 -15 -32 -12 -8 -11 -9 7 -7 11 2 27 8 35 15 10 7 18 8
24 2 7 -7 22 2 44 25 29 30 36 33 54 22 30 -16 38 -16 62 6 15 13 24 15 29 7
5 -8 13 -6 26 6 10 9 19 14 19 9 0 -4 6 -3 13 3 6 6 15 10 19 9 4 -1 16 6 27
15 11 9 21 14 24 12 2 -2 10 2 17 11 12 14 15 14 34 -2 21 -18 21 -18 3 3 -9
11 -14 24 -10 27 3 4 4 7 0 7 -3 0 -8 -4 -11 -9z m-20 -18 c-2 -3 -7 -3 -9 -1
-3 2 -17 -8 -31 -21 -14 -14 -26 -21 -26 -17 0 5 -7 3 -15 -4 -8 -7 -15 -9
-15 -5 0 5 -9 0 -19 -9 -10 -10 -22 -13 -25 -8 -8 13 26 40 46 37 9 -2 22 3
29 11 6 8 15 12 19 9 5 -3 11 -2 14 3 3 5 12 9 21 9 8 0 13 -2 11 -4z m-176
-78 c-12 -14 -35 -14 -47 0 -4 4 -3 5 3 2 7 -4 17 0 24 8 7 8 16 12 22 9 5 -3
5 -11 -2 -19z m-110 -20 c-22 -23 -37 -32 -44 -25 -6 6 -15 5 -26 -5 -14 -13
-16 -12 -16 9 0 23 10 27 32 13 6 -3 19 2 29 13 10 11 21 17 26 15 4 -3 10 -1
14 5 3 5 9 10 13 10 3 0 -9 -16 -28 -35z"/>
<path d="M4269 1313 c-13 -16 -12 -17 4 -4 9 7 17 15 17 17 0 8 -8 3 -21 -13z"/>
<path d="M4084 1258 l-19 -23 23 19 c21 18 27 26 19 26 -2 0 -12 -10 -23 -22z"/>
<path d="M836 1318 c3 -5 10 -6 15 -3 13 9 11 12 -6 12 -8 0 -12 -4 -9 -9z"/>
<path d="M1204 1261 c4 -6 3 -11 -3 -11 -5 0 2 -12 17 -27 l27 -28 18 23 c10
12 23 19 28 16 6 -4 6 -11 -1 -19 -8 -9 -8 -15 0 -20 6 -3 8 -10 5 -15 -6 -10
21 -7 31 3 12 11 26 8 18 -4 -4 -8 0 -8 15 0 17 10 23 8 33 -9 7 -11 16 -20
21 -20 4 0 5 5 2 10 -7 12 -3 12 20 4 12 -5 13 -9 5 -14 -8 -5 -7 -9 5 -13 9
-4 14 -3 11 2 -3 4 13 8 36 7 26 -1 45 -8 51 -18 10 -14 12 -14 26 1 9 9 12
11 7 4 -14 -22 1 -27 28 -10 23 16 25 15 41 -9 9 -13 20 -22 25 -19 6 4 16 3
23 -2 6 -4 19 -8 27 -8 8 0 20 -4 27 -8 6 -4 15 -3 18 3 5 8 11 8 20 0 10 -8
15 -8 20 0 5 8 11 7 23 -2 12 -10 14 -10 8 0 -4 6 -2 12 3 12 6 0 11 -5 11
-10 0 -6 3 -9 8 -9 21 4 32 -2 26 -13 -6 -10 -4 -10 7 -3 16 12 39 13 56 2 6
-4 14 -3 18 3 4 6 10 8 15 5 10 -6 8 15 -3 32 -8 12 -25 12 -46 -1 -10 -6 -20
-2 -33 14 -11 13 -18 17 -18 9 0 -11 -2 -11 -10 1 -9 13 -10 13 -10 0 0 -13
-1 -13 -10 0 -5 8 -10 11 -10 6 0 -5 -6 -4 -12 1 -7 5 -32 9 -55 8 -24 -1 -43
2 -43 7 0 5 -12 6 -27 4 -14 -3 -31 -2 -37 2 -6 4 -18 7 -26 7 -8 0 -20 3 -26
7 -6 4 -21 6 -32 3 -12 -2 -24 1 -27 6 -4 5 -11 7 -16 4 -5 -4 -9 0 -9 7 0 8
-5 6 -11 -5 -10 -16 -12 -16 -40 3 -16 12 -29 18 -29 14 0 -3 -6 -2 -12 3 -7
6 -21 9 -30 8 -10 -2 -20 1 -24 6 -3 5 -14 5 -25 -2 -21 -11 -34 -6 -34 14 0
7 -6 13 -12 13 -7 1 -14 3 -15 4 -2 1 -14 3 -28 4 -14 2 -36 8 -49 15 -14 8
-21 9 -17 2z m26 -20 c0 -6 9 -8 20 -6 23 5 25 2 7 -14 -11 -8 -18 -6 -32 9
-10 11 -13 20 -7 20 7 0 12 -4 12 -9z m85 -20 c-3 -5 -1 -12 5 -16 6 -4 8 -11
4 -16 -4 -6 -11 -6 -20 2 -11 9 -11 15 -3 25 13 16 23 19 14 5z m98 -26 c15 3
16 1 6 -11 -10 -12 -14 -13 -28 -1 -9 8 -23 12 -31 10 -13 -4 -13 -3 0 6 8 5
19 6 25 2 5 -5 18 -7 28 -6z m77 -39 c0 -4 -6 -4 -12 2 -13 10 -18 12 -40 12
-9 0 -9 3 1 9 15 10 51 -7 51 -23z m70 4 c3 -1 9 -2 14 -1 5 1 3 -5 -4 -14
-12 -14 -15 -14 -30 0 -9 8 -20 12 -25 8 -4 -5 -5 -3 -2 4 6 9 26 11 47 3z
m55 -9 c3 -6 -5 -15 -17 -21 -21 -10 -22 -10 -5 3 14 11 15 16 5 20 -9 4 -9 6
-1 6 6 1 14 -3 18 -8z m47 -27 c-3 -16 -2 -16 13 -4 24 20 45 21 52 3 5 -12 7
-12 14 -1 7 11 9 11 9 -1 0 -9 4 -10 13 -4 16 12 47 10 73 -5 12 -6 24 -8 28
-5 3 3 6 1 6 -5 0 -7 5 -12 11 -12 5 0 7 6 3 13 -4 6 2 4 14 -7 15 -13 26 -16
34 -9 11 8 20 9 44 4 4 0 1 -8 -6 -16 -7 -8 -17 -12 -23 -8 -6 4 -23 7 -37 8
-14 1 -34 6 -46 13 -22 11 -41 11 -61 -1 -6 -4 -15 -3 -18 3 -5 8 -11 8 -20 0
-8 -7 -15 -7 -19 -1 -3 5 -14 8 -24 6 -9 -1 -22 2 -29 7 -7 5 -16 7 -21 4 -6
-3 -17 5 -26 18 -14 22 -14 24 2 21 10 -1 16 -9 14 -21z"/>
<path d="M1694 1119 c1 -7 9 -13 18 -15 11 -1 15 3 11 13 -4 11 -8 12 -13 3
-6 -9 -9 -9 -13 -1 -4 8 -5 8 -3 0z"/>
<path d="M1764 1108 c-3 -4 -10 -5 -16 -2 -7 4 -8 2 -4 -5 6 -9 11 -9 21 -1
10 8 15 8 20 0 5 -8 11 -8 19 -1 7 6 16 9 19 6 4 -3 5 -2 2 2 -8 11 -55 11
-61 1z"/>
<path d="M1946 1078 c3 -5 10 -6 15 -3 13 9 11 12 -6 12 -8 0 -12 -4 -9 -9z"/>
<path d="M1136 1228 c3 -5 10 -6 15 -3 13 9 11 12 -6 12 -8 0 -12 -4 -9 -9z"/>
<path d="M3693 1168 c-11 -19 -13 -39 -2 -32 5 3 12 -2 16 -11 5 -15 7 -15 14
-2 6 10 23 14 54 12 l45 -2 -21 23 c-15 16 -27 21 -38 15 -19 -9 -32 -8 -48 2
-6 4 -15 2 -20 -5z m42 -14 c6 0 17 3 26 8 11 5 21 3 28 -6 9 -10 4 -12 -24
-11 -19 2 -38 -1 -41 -7 -3 -5 -11 -4 -20 3 -16 13 -8 33 9 22 7 -4 17 -8 22
-9z"/>
<path d="M3550 1115 c-10 -12 -15 -13 -28 -3 -8 7 -16 13 -16 12 -15 -13 -57
-28 -77 -29 -15 0 -36 -9 -48 -19 -21 -19 -22 -19 -45 3 -16 15 -26 19 -31 12
-3 -6 -12 -8 -18 -4 -7 3 -4 -3 5 -13 12 -14 29 -20 50 -18 18 1 34 2 36 4 1
1 10 3 20 4 9 1 23 5 30 9 6 5 12 5 12 1 0 -4 9 1 20 11 19 17 21 17 39 1 16
-15 20 -15 31 -1 7 8 16 13 20 10 5 -3 12 -1 15 5 5 8 11 8 19 1 9 -8 13 -7
13 4 0 8 -3 13 -5 10 -3 -3 -11 0 -17 5 -9 7 -16 6 -25 -5z m-25 -17 c4 -3 2
-9 -3 -12 -5 -3 -15 1 -21 8 -10 11 -9 14 3 12 9 -1 18 -5 21 -8z m-196 -22
c11 -14 6 -15 -27 -7 -4 1 8 21 12 21 2 0 9 -6 15 -14z m96 5 c-9 -8 -36 -10
-30 -2 2 4 11 8 20 8 8 0 13 -3 10 -6z"/>
<path d="M2081 1051 c-8 -5 -9 -11 -3 -15 5 -3 12 1 16 9 6 17 6 18 -13 6z"/>
<path d="M2848 1038 c22 -24 43 -30 57 -16 3 3 -2 11 -11 19 -14 11 -18 12
-22 1 -3 -10 -9 -9 -26 5 -18 15 -18 14 2 -9z m46 -6 c3 -5 -1 -9 -9 -9 -8 0
-12 4 -9 9 3 4 7 8 9 8 2 0 6 -4 9 -8z"/>
<path d="M2936 1032 c-3 -5 1 -9 9 -9 8 0 12 4 9 9 -3 4 -7 8 -9 8 -2 0 -6 -4
-9 -8z"/>
<path d="M3036 1058 c3 -5 9 -6 14 -3 5 3 13 -1 17 -10 7 -12 10 -12 20 3 9
16 6 18 -23 18 -18 0 -30 -4 -28 -8z"/>
<path d="M5056 3204 c-30 -29 -19 -33 14 -4 13 11 18 20 12 20 -6 0 -18 -7
-26 -16z"/>
<path d="M5067 2843 c5 -13 35 -11 40 4 2 6 -7 10 -20 9 -14 0 -23 -6 -20 -13z"/>
<path d="M252 1513 c-13 -14 -16 -23 -8 -20 13 5 39 -14 33 -24 -1 -2 4 2 11
10 12 15 13 14 16 -11 0 -7 6 -13 11 -13 6 0 15 -4 21 -8 7 -4 17 0 24 8 7 8
17 15 22 15 6 0 5 -7 -2 -15 -7 -9 -10 -18 -6 -22 3 -3 6 0 6 8 0 12 2 12 9 0
5 -8 7 -21 4 -30 -3 -12 -2 -12 7 2 6 9 16 17 22 17 6 0 5 -7 -3 -17 -13 -17
-13 -17 5 -3 18 14 19 13 13 -5 -6 -17 -5 -18 5 -5 16 19 36 19 47 1 5 -8 14
-10 22 -6 8 6 11 4 7 -7 -4 -8 -1 -15 7 -15 7 0 10 9 8 21 -4 20 -4 20 10 3
15 -18 16 -18 26 1 6 11 7 22 4 26 -8 8 28 3 42 -6 6 -4 17 -2 25 4 13 8 12 9
-1 5 -9 -3 -22 0 -28 6 -6 6 -11 7 -11 3 0 -5 -7 -3 -15 4 -12 10 -15 10 -15
-1 0 -11 -2 -11 -10 1 -5 8 -14 16 -20 16 -5 1 -12 3 -15 4 -3 1 -9 4 -15 5
-5 1 -12 4 -15 5 -3 1 -9 4 -15 5 -5 1 -12 4 -15 5 -3 1 -9 4 -15 5 -5 1 -12
4 -15 5 -3 1 -14 4 -25 5 -11 1 -23 4 -27 5 -5 1 -12 2 -17 1 -4 -1 -14 4 -22
10 -8 6 -14 8 -14 4 0 -4 -7 -2 -15 5 -8 7 -15 9 -15 5 0 -4 -6 -3 -13 3 -9 8
-18 4 -35 -15z m48 2 c0 4 7 2 15 -5 8 -7 15 -9 15 -5 0 4 6 2 14 -4 8 -6 18
-11 22 -10 5 1 12 0 17 -1 4 -1 16 -4 27 -5 11 -1 22 -4 25 -5 3 -1 10 -4 15
-5 6 -1 12 -4 15 -5 3 -1 10 -4 15 -5 6 -1 12 -4 15 -5 3 -1 10 -3 17 -4 6 0
13 -7 16 -15 3 -10 0 -12 -14 -7 -16 6 -17 5 -6 -6 11 -11 16 -10 26 4 11 15
13 15 24 -2 7 -11 8 -21 2 -25 -5 -3 -11 -1 -15 5 -4 7 -12 7 -25 0 -13 -7
-21 -6 -30 5 -6 7 -20 12 -30 10 -10 -2 -24 3 -31 11 -10 12 -14 12 -20 2 -7
-10 -9 -10 -9 0 0 22 -2 27 -12 40 -9 10 -14 8 -25 -8 -11 -15 -18 -18 -27
-11 -7 6 -16 9 -19 6 -4 -3 -5 -2 -2 2 8 11 -16 32 -30 27 -7 -3 -16 -1 -20 5
-3 6 -1 11 5 11 6 0 8 5 4 13 -5 8 -2 8 9 -2 9 -7 17 -10 17 -6z"/>
<path d="M319 1488 c24 -28 52 -29 30 -2 -6 8 -14 12 -17 9 -3 -3 -12 1 -21 7
-9 7 -5 0 8 -14z"/>
<path d="M403 1464 c0 -7 4 -11 8 -9 3 3 12 -1 18 -9 7 -8 20 -13 29 -11 9 1
26 -5 36 -14 15 -13 18 -13 10 -1 -5 8 -9 20 -9 25 0 6 -6 11 -12 11 -7 1 -15
3 -18 4 -3 1 -9 4 -15 5 -5 1 -11 3 -12 5 -12 9 -35 5 -35 -6z m49 -9 c3 0 9
-3 13 -7 4 -3 0 -5 -9 -4 -9 1 -22 8 -29 16 -10 10 -9 11 3 4 8 -5 18 -9 22
-9z"/>
<path d="M5076 1513 c-6 -14 -5 -15 5 -6 7 7 10 15 7 18 -3 3 -9 -2 -12 -12z"/>
<path d="M340 1426 c0 -2 7 -7 16 -10 8 -3 12 -2 9 4 -6 10 -25 14 -25 6z"/>
<path d="M686 1411 c-4 -5 -2 -12 4 -16 5 -3 10 -3 10 1 0 4 9 -1 19 -10 13
-12 21 -14 26 -6 3 5 11 7 17 4 7 -5 8 -2 3 5 -5 9 -10 10 -18 2 -8 -8 -17 -5
-33 10 -13 12 -24 16 -28 10z"/>
<path d="M455 1390 c-3 -6 1 -7 9 -4 18 7 21 14 7 14 -6 0 -13 -4 -16 -10z"/>
<path d="M4505 1380 c6 -30 16 -40 12 -12 -2 12 -6 24 -10 28 -3 4 -4 -4 -2
-16z"/>
<path d="M4553 1385 c0 -8 4 -12 9 -9 5 3 6 10 3 15 -9 13 -12 11 -12 -6z"/>
<path d="M790 1382 c0 -10 22 -22 47 -28 7 -1 16 3 20 9 3 7 3 9 -2 5 -4 -4
-14 -3 -22 3 -7 6 -13 8 -13 4 0 -4 -7 -2 -15 5 -9 7 -15 8 -15 2z"/>
<path d="M4715 1359 c-3 -4 2 -6 10 -5 21 3 28 13 10 13 -9 0 -18 -4 -20 -8z"/>
<path d="M924 1329 c34 -26 77 -34 69 -12 -3 7 -8 13 -12 14 -3 1 -18 2 -32 3
-14 2 -32 6 -40 10 -8 4 -1 -3 15 -15z m52 -11 c3 -4 -1 -5 -10 -4 -8 1 -18 5
-22 8 -3 4 1 5 10 4 8 -1 18 -5 22 -8z"/>
<path d="M1023 1305 c0 -8 4 -12 9 -9 5 3 6 10 3 15 -9 13 -12 11 -12 -6z"/>
<path d="M1080 1284 c0 -1 6 -7 14 -13 10 -8 16 -8 24 2 9 10 6 13 -13 13 -14
0 -25 -1 -25 -2z"/>
<path d="M3915 1258 c-19 -12 -32 -14 -105 -21 -19 -2 -34 -7 -32 -10 1 -4 2
-9 2 -12 0 -3 8 -1 18 4 13 7 23 6 30 -1 9 -9 17 -7 31 6 11 10 24 16 28 13 5
-3 20 3 33 14 28 21 25 24 -5 7z m-60 -28 c-3 -5 -12 -10 -18 -10 -7 0 -6 4 3
10 19 12 23 12 15 0z"/>
<path d="M937 1249 c7 -7 15 -10 18 -7 3 3 -2 9 -12 12 -14 6 -15 5 -6 -5z"/>
<path d="M1190 1199 c0 -5 5 -7 10 -4 6 3 10 8 10 11 0 2 -4 4 -10 4 -5 0 -10
-5 -10 -11z"/>
<path d="M4175 1200 c-3 -6 1 -7 9 -4 18 7 21 14 7 14 -6 0 -13 -4 -16 -10z"/>
<path d="M3594 1178 c-3 -5 -9 -6 -14 -3 -5 3 -11 1 -15 -4 -3 -5 -14 -8 -25
-6 -21 4 -36 -10 -21 -19 5 -4 12 -2 16 4 4 6 10 8 15 5 5 -3 11 -1 15 5 4 7
16 4 33 -8 15 -10 33 -18 41 -18 16 1 23 44 8 53 -6 3 -7 1 -3 -5 4 -7 2 -12
-3 -12 -6 0 -11 4 -11 8 0 11 -29 11 -36 0z m38 -22 c4 3 9 1 12 -4 3 -6 -2
-9 -11 -8 -9 2 -19 8 -21 14 -2 7 -9 9 -14 6 -7 -5 -8 -2 -3 6 6 10 11 10 20
-3 7 -9 14 -14 17 -11z"/>
<path d="M1205 1160 c-3 -6 1 -7 9 -4 18 7 21 14 7 14 -6 0 -13 -4 -16 -10z"/>
<path d="M3446 1151 c-3 -5 -19 -7 -36 -6 -17 1 -28 0 -25 -3 12 -12 55 -9 66
5 6 7 9 13 6 13 -3 0 -8 -4 -11 -9z"/>
<path d="M3304 1128 c-2 -4 -13 -5 -24 -3 -12 2 -18 0 -15 -5 4 -6 40 -7 40 0
0 1 8 3 18 5 28 5 33 14 7 12 -12 -1 -24 -5 -26 -9z"/>
<path d="M1356 1118 c3 -5 10 -6 15 -3 13 9 11 12 -6 12 -8 0 -12 -4 -9 -9z"/>
<path d="M2014 1091 c14 -14 29 -22 32 -18 10 10 -23 44 -42 44 -11 0 -9 -7
10 -26z m17 2 c13 -16 12 -17 -3 -4 -17 13 -22 21 -14 21 2 0 10 -8 17 -17z"/>
<path d="M3095 1110 c-2 -3 -40 -6 -85 -5 -44 1 -86 -3 -93 -8 -8 -6 -7 -7 5
-4 19 7 42 -15 30 -29 -4 -4 1 -2 11 5 9 7 17 10 17 6 0 -5 8 -1 18 7 21 18
127 19 127 1 0 -6 3 -15 8 -19 10 -11 67 -12 73 -2 3 5 9 6 13 4 3 -3 7 4 7
14 0 10 -3 18 -6 18 -3 0 -12 0 -20 1 -11 1 -12 3 -3 9 7 5 -12 8 -43 8 -31
-1 -57 -3 -59 -6z m100 -18 c11 -6 14 -12 7 -12 -7 0 -11 -4 -8 -9 4 -5 -2 -8
-11 -6 -10 1 -17 8 -15 15 1 6 -3 10 -10 7 -7 -2 -11 -11 -10 -18 2 -8 0 -10
-5 -6 -4 5 -8 12 -8 15 0 4 -3 12 -7 18 -9 14 41 11 67 -4z m-201 -1 c-8 -8
-34 -10 -38 -2 -3 4 6 7 19 7 14 0 22 -2 19 -5z"/>
<path d="M3173 1085 c0 -8 4 -12 9 -9 5 3 6 10 3 15 -9 13 -12 11 -12 -6z"/>
<path d="M2070 1105 c0 -7 30 -13 34 -7 3 4 -4 9 -15 9 -10 1 -19 0 -19 -2z"/>
<path d="M2136 1098 c3 -4 9 -6 14 -3 11 7 28 -17 25 -37 -2 -9 3 -22 11 -29
11 -9 14 -8 14 5 0 10 5 14 10 11 7 -4 7 -13 0 -25 -9 -16 -8 -18 6 -13 13 5
15 3 9 -8 -8 -12 -6 -12 8 0 16 12 21 9 18 -12 -1 -4 7 -3 18 2 10 6 21 8 24
4 4 -3 4 5 1 18 -3 13 -6 30 -6 37 -1 6 -5 12 -9 12 -13 0 -22 -22 -13 -29 14
-10 16 -33 2 -29 -7 3 -14 10 -14 16 -1 7 -2 17 -3 23 0 6 -9 8 -18 5 -17 -6
-17 -5 0 8 14 11 15 15 5 20 -7 3 0 3 17 1 16 -3 32 0 35 5 3 5 11 0 19 -11 9
-16 9 -19 0 -14 -8 6 -10 4 -4 -5 6 -9 4 -11 -6 -6 -8 4 -2 -3 12 -16 15 -13
29 -30 32 -38 4 -11 6 -9 6 5 1 17 3 17 11 5 8 -13 10 -12 10 4 0 15 3 16 14
6 8 -6 12 -19 9 -28 -4 -14 -3 -15 5 -2 6 8 8 18 6 22 -3 4 -1 8 4 8 6 0 13
-7 16 -16 6 -15 9 -15 32 1 19 12 29 14 37 6 6 -6 16 -11 22 -11 5 0 2 5 -8
11 -9 6 -15 15 -11 21 4 6 9 5 15 -3 7 -12 10 -12 21 0 11 12 10 13 -2 6 -10
-6 -8 -1 4 13 22 26 35 30 15 5 -12 -14 -12 -16 0 -8 10 6 12 4 6 -5 -5 -8 -4
-11 2 -7 5 3 10 0 10 -7 0 -7 -6 -13 -13 -13 -7 0 -10 5 -7 11 3 6 0 5 -8 -2
-12 -11 -12 -14 0 -21 8 -5 21 -7 29 -3 11 4 13 1 7 -9 -5 -8 -4 -11 1 -6 5 5
9 16 9 24 0 9 6 18 14 21 9 3 11 0 6 -8 -5 -9 -4 -11 3 -6 7 4 12 3 12 -2 0
-5 11 -9 25 -9 25 0 29 16 12 45 -8 11 -2 16 16 13 4 -1 2 8 -5 19 -8 13 -20
19 -30 16 -10 -2 -20 0 -23 4 -6 9 -24 8 -42 -3 -6 -4 -14 -4 -16 1 -7 9 -333
9 -343 -1 -4 -4 -14 -1 -22 5 -16 14 -64 19 -56 6z m81 -17 c9 9 11 7 9 -7 -2
-11 -7 -19 -12 -19 -5 0 -14 -4 -21 -8 -7 -4 -10 -1 -8 10 1 10 -3 25 -9 33
-7 10 -4 9 10 -2 15 -13 23 -15 31 -7z m339 -3 c4 -4 12 -4 18 -1 17 11 35 12
41 3 3 -5 12 -7 19 -4 8 3 17 1 21 -5 3 -6 -1 -14 -9 -17 -18 -7 -22 -25 -5
-21 6 1 13 -5 14 -14 3 -19 -16 -19 -39 0 -13 11 -19 11 -32 1 -8 -8 -14 -9
-13 -4 1 5 0 12 -1 17 -3 8 -7 24 -9 34 0 3 -12 -4 -26 -17 -14 -13 -25 -20
-25 -16 0 4 -17 -5 -37 -18 -27 -18 -39 -22 -44 -14 -4 7 -5 16 -3 20 3 4 1 8
-5 8 -5 0 -13 -5 -16 -10 -5 -7 -11 -8 -19 -1 -7 6 -18 6 -25 1 -20 -12 -53
10 -40 26 7 8 6 14 -1 19 -5 3 -10 9 -10 14 0 9 236 8 246 -1z m-312 -59 c-3
-5 -10 -7 -15 -3 -5 3 -7 10 -3 15 3 5 10 7 15 3 5 -3 7 -10 3 -15z"/>
<path d="M2331 1064 c5 -6 6 -14 3 -17 -13 -13 7 -27 26 -17 13 7 21 7 25 -1
5 -7 14 -4 26 7 18 16 25 11 20 -18 0 -5 4 -8 9 -8 6 0 10 5 10 12 0 6 3 8 6
5 4 -3 16 -1 28 5 11 7 24 11 27 11 4 -1 14 6 22 15 15 16 9 17 -98 17 -82 0
-111 -3 -104 -11z m192 -7 c-2 -4 -8 -5 -13 -2 -5 3 -11 1 -15 -5 -4 -6 -11
-8 -16 -5 -5 4 -9 0 -9 -7 0 -9 -3 -9 -10 2 -8 13 -10 13 -10 1 0 -11 -3 -10
-13 3 -12 16 -14 16 -26 2 -7 -9 -18 -13 -25 -9 -16 11 -30 10 -38 -2 -4 -5
-6 -1 -6 10 2 19 9 20 94 20 51 0 90 -3 87 -8z"/>
<path d="M2386 1048 c3 -5 10 -6 15 -3 13 9 11 12 -6 12 -8 0 -12 -4 -9 -9z"/>
<path d="M2579 1077 c-12 -26 3 -59 16 -37 4 6 14 2 24 -11 14 -17 20 -19 26
-9 5 8 4 11 -3 6 -20 -12 -25 17 -6 32 15 11 15 13 2 9 -9 -3 -19 -3 -22 1 -6
5 -35 12 -37 9z m33 -18 c2 -2 1 -3 -1 -2 -2 2 -9 -2 -16 -7 -8 -7 -12 -5 -12
4 0 12 22 16 29 5z"/>
<path d="M2705 1089 c-3 -4 2 -6 10 -5 21 3 28 13 10 13 -9 0 -18 -4 -20 -8z"/>
<path d="M2867 1089 c7 -7 15 -10 18 -7 3 3 -2 9 -12 12 -14 6 -15 5 -6 -5z"/>
<path d="M3730 1079 c0 -5 5 -7 10 -4 6 3 10 8 10 11 0 2 -4 4 -10 4 -5 0 -10
-5 -10 -11z"/>
<path d="M2786 1038 c3 -4 9 -8 15 -8 5 0 9 4 9 8 0 5 -7 9 -15 9 -8 0 -12 -4
-9 -9z"/>
<path d="M3530 1039 c0 -5 5 -7 10 -4 6 3 10 8 10 11 0 2 -4 4 -10 4 -5 0 -10
-5 -10 -11z"/>
<path d="M2060 1000 c8 -5 20 -10 25 -10 6 0 3 5 -5 10 -8 5 -19 10 -25 10 -5
0 -3 -5 5 -10z"/>
<path d="M2310 1000 c0 -5 5 -10 11 -10 5 0 7 5 4 10 -3 6 -8 10 -11 10 -2 0
-4 -4 -4 -10z"/>
<path d="M2475 980 c3 -5 8 -10 11 -10 2 0 4 5 4 10 0 6 -5 10 -11 10 -5 0 -7
-4 -4 -10z"/>
</g>
</svg>
